<?xml version="1.0" standalone="no"?>
<!DOCTYPE svg PUBLIC "-//W3C//DTD SVG 20010904//EN"
 "http://www.w3.org/TR/2001/REC-SVG-20010904/DTD/svg10.dtd">
<svg version="1.0" xmlns="http://www.w3.org/2000/svg"
 width="700.000000pt" height="700.000000pt" viewBox="0 0 700.000000 700.000000"
 preserveAspectRatio="xMidYMid meet">
<metadata>
Created by potrace 1.11, written by Peter Selinger 2001-2013
</metadata>
<g transform="translate(0.000000,700.000000) scale(0.100000,-0.100000)"
fill="#000000" stroke="none">
<path d="M3278 6996 c-1 -2 -39 -6 -83 -10 -113 -8 -280 -33 -418 -61 -327
-66 -709 -212 -1005 -383 -785 -452 -1356 -1166 -1621 -2025 -48 -154 -110
-448 -126 -594 -28 -255 -27 -642 0 -840 10 -67 14 -99 20 -148 4 -27 10 -66
15 -85 5 -19 12 -48 14 -65 54 -300 217 -727 398 -1039 183 -315 461 -651 744
-896 102 -89 220 -177 344 -260 52 -34 107 -71 122 -81 15 -11 30 -19 33 -19
3 0 24 -12 46 -26 59 -37 278 -145 389 -192 258 -109 596 -203 855 -237 22 -2
56 -7 75 -10 196 -28 655 -27 850 1 544 79 982 235 1414 502 99 61 316 215
362 257 7 5 39 33 72 60 85 71 325 314 408 415 463 559 733 1211 802 1940 9
101 8 493 -1 605 -75 842 -445 1616 -1053 2205 -151 146 -183 173 -329 283
-254 190 -507 335 -793 452 -229 93 -529 177 -757 211 -27 4 -57 9 -65 10 -8
2 -42 6 -76 9 -33 4 -74 9 -90 11 -32 5 -540 14 -546 10z m477 -590 c90 -9
267 -34 325 -47 52 -12 77 -18 105 -23 74 -14 282 -82 406 -132 473 -191 857
-480 1212 -915 50 -61 194 -281 251 -384 59 -107 129 -255 120 -255 -3 0 -40
30 -82 68 -314 276 -715 522 -1112 682 -254 102 -598 199 -845 236 -27 4 -52
8 -55 9 -4 1 -87 11 -160 20 -269 32 -717 24 -960 -15 -30 -5 -77 -12 -105
-15 -195 -24 -673 -160 -860 -244 -11 -5 -67 -31 -125 -57 -340 -152 -698
-382 -965 -619 -37 -33 -72 -61 -76 -63 -20 -8 81 196 169 343 174 289 361
508 643 750 198 171 493 347 769 458 114 47 300 110 359 122 9 2 45 10 81 19
62 14 199 38 285 50 22 3 85 9 140 12 55 4 101 7 103 9 5 4 310 -3 377 -9z
m-100 -1310 c183 -18 354 -64 520 -142 58 -27 255 -141 265 -153 3 -4 29 -24
58 -46 157 -118 349 -359 446 -559 161 -334 202 -718 114 -1071 -84 -342 -267
-633 -538 -860 -241 -201 -547 -329 -865 -361 -135 -14 -329 -5 -465 21 -61
12 -251 68 -256 76 -3 5 -11 9 -19 9 -22 0 -162 69 -248 122 -119 73 -193 132
-298 237 -81 82 -219 248 -219 265 0 3 -11 21 -24 41 -87 127 -192 419 -211
580 -18 153 -20 187 -19 255 6 450 182 848 511 1160 259 246 586 393 947 426
39 3 72 7 73 8 5 4 164 -2 228 -8z m-2150 -701 c-77 -169 -141 -387 -171 -585
-18 -122 -24 -388 -12 -520 21 -221 90 -482 182 -684 20 -42 30 -73 23 -70
-19 12 -144 107 -181 139 -273 235 -475 460 -651 724 l-67 101 58 88 c161 243
350 462 564 652 47 41 87 77 90 80 22 22 190 150 197 150 1 0 -13 -34 -32 -75z
m4037 18 c40 -32 82 -65 94 -73 28 -19 169 -146 237 -215 154 -153 314 -347
433 -526 l66 -99 -66 -99 c-204 -306 -462 -582 -756 -807 -36 -28 -70 -53 -76
-57 -6 -3 10 44 37 106 48 113 112 309 123 381 4 21 8 41 11 45 2 4 7 30 10
57 4 27 8 56 10 64 24 88 24 580 0 619 -1 3 -6 29 -9 56 -18 135 -82 349 -152
508 -24 53 -41 97 -38 97 3 0 37 -26 76 -57z m578 -2191 c-206 -414 -503 -776
-849 -1036 -36 -27 -67 -53 -69 -58 -2 -4 -7 -8 -11 -8 -5 0 -44 -24 -87 -53
-218 -145 -453 -258 -710 -342 -115 -37 -282 -80 -349 -90 -22 -3 -46 -8 -53
-10 -7 -3 -40 -7 -75 -11 -34 -3 -65 -8 -68 -10 -13 -7 -205 -17 -339 -18
-471 -1 -875 92 -1297 299 -481 236 -897 611 -1183 1067 -67 108 -213 388
-206 395 2 3 42 -28 88 -67 440 -381 946 -655 1503 -813 142 -41 366 -92 450
-103 17 -2 39 -6 50 -8 18 -4 66 -10 160 -21 99 -12 253 -19 410 -19 242 0
419 12 586 39 13 2 46 6 73 10 27 3 52 8 55 10 3 1 23 6 43 9 199 31 591 150
783 236 22 10 65 28 95 41 222 93 545 286 790 472 57 44 89 70 214 177 16 14
34 30 40 36 27 29 15 -5 -44 -124z"/>
<path d="M3388 4515 c-2 -2 -24 -6 -49 -9 -108 -14 -263 -74 -371 -143 -245
-155 -409 -397 -462 -682 -25 -131 -19 -270 18 -449 28 -133 141 -326 263
-450 130 -131 335 -246 493 -276 14 -3 48 -9 75 -15 28 -6 111 -9 185 -6 126
3 163 10 310 51 14 4 64 27 111 51 294 147 497 419 554 741 14 77 14 276 0
357 -33 188 -142 392 -285 535 -198 197 -440 298 -719 298 -66 0 -121 -2 -123
-3z m243 -595 c176 -48 307 -218 313 -405 6 -161 -73 -304 -213 -389 -292
-178 -674 51 -656 394 7 122 49 213 140 299 108 103 267 141 416 101z"/>
</g>
</svg>
