<svg width="360" height="360" xmlns="http://www.w3.org/2000/svg">

 <g>
  <title>background</title>
  <rect fill="none" id="canvas_background" height="362" width="362" y="-1" x="-1"/>
 </g>
 <g>
  <title>Layer 1</title>
  <path id="svg_1" d="m180,360c99.25391,0 180,-80.74609 180,-180s-80.74609,-180 -180,-180s-180,80.74609 -180,180s80.74609,180 180,180zm0,-30c-62.05078,0 -115.42187,-37.87109 -138.21094,-91.71484c37.0586,34.32812 86.19922,54.21484 138.21094,54.21484s101.15234,-19.88672 138.21094,-54.21484c-22.78906,53.84375 -76.16016,91.71484 -138.21094,91.71484zm82.5,-150c0,45.49219 -37.00781,82.5 -82.5,82.5s-82.5,-37.00781 -82.5,-82.5s37.00781,-82.5 82.5,-82.5s82.5,37.00781 82.5,82.5zm18.13281,-50.24609c18.59766,13.26172 34.64844,30.24218 46.97657,50.24609c-12.32813,20.00391 -28.37891,36.98438 -46.97657,50.24609c7.58985,-15.13281 11.86719,-32.19531 11.86719,-50.24609s-4.27734,-35.11328 -11.86719,-50.24609zm-201.26562,100.49218c-18.59766,-13.26171 -34.64844,-30.24218 -46.97656,-50.24609c12.32812,-20.00391 28.3789,-36.98437 46.97656,-50.24609c-7.58985,15.13281 -11.86719,32.19531 -11.86719,50.24609s4.27734,35.11328 11.86719,50.24609zm100.63281,-200.24609c62.05078,0 115.42188,37.87109 138.21094,91.71484c-37.0586,-34.32812 -86.19922,-54.21484 -138.21094,-54.21484s-101.15234,19.88672 -138.21094,54.21484c22.78907,-53.84375 76.16016,-91.71484 138.21094,-91.71484zm0,0" fill="#007bff"/>
  <path id="svg_2" d="m180.5,232.5c28.94922,0 52.5,-23.55078 52.5,-52.5s-23.55078,-52.5 -52.5,-52.5s-52.5,23.55078 -52.5,52.5s23.55078,52.5 52.5,52.5zm0,-75c12.40625,0 22.5,10.09375 22.5,22.5s-10.09375,22.5 -22.5,22.5s-22.5,-10.09375 -22.5,-22.5s10.09375,-22.5 22.5,-22.5zm0,0" fill="#007bff"/>
 </g>
</svg>