<svg viewBox="0 0 512 512" xmlns="http://www.w3.org/2000/svg">
  <path fill="#007bff" d="m256 360c99.253906 0 180-80.746094 180-180s-80.746094-180-180-180-180 80.746094-180 180 80.746094 180 180 180zm0-30c-62.050781 0-115.421875-37.871094-138.210938-91.714844 37.058594 34.328125 86.199219 54.214844 138.210938 54.214844s101.152344-19.886719 138.210938-54.214844c-22.789063 53.84375-76.160157 91.714844-138.210938 91.714844zm82.5-150c0 45.492188-37.007812 82.5-82.5 82.5s-82.5-37.007812-82.5-82.5 37.007812-82.5 82.5-82.5 82.5 37.007812 82.5 82.5zm18.132812-50.246094c18.597657 13.261719 34.648438 30.242188 46.976563 50.246094-12.328125 20.003906-28.378906 36.984375-46.976563 50.246094 7.589844-15.132813 11.867188-32.195313 11.867188-50.246094s-4.277344-35.113281-11.867188-50.246094zm-201.265624 100.492188c-18.597657-13.261719-34.648438-30.242188-46.976563-50.246094 12.328125-20.003906 28.378906-36.984375 46.976563-50.246094-7.589844 15.132813-11.867188 32.195313-11.867188 50.246094s4.277344 35.113281 11.867188 50.246094zm100.632812-200.246094c62.050781 0 115.421875 37.871094 138.210938 91.714844-37.058594-34.328125-86.199219-54.214844-138.210938-54.214844s-101.152344 19.886719-138.210938 54.214844c22.789063-53.84375 76.160157-91.714844 138.210938-91.714844zm0 0"/>
  <path fill="#007bff" d="m256 232.5c28.949219 0 52.5-23.550781 52.5-52.5s-23.550781-52.5-52.5-52.5-52.5 23.550781-52.5 52.5 23.550781 52.5 52.5 52.5zm0-75c12.40625 0 22.5 10.09375 22.5 22.5s-10.09375 22.5-22.5 22.5-22.5-10.09375-22.5-22.5 10.09375-22.5 22.5-22.5zm0 0"/>
</svg>